<svg width="300" height="287" viewBox="0 0 300 287" fill="none" xmlns="http://www.w3.org/2000/svg">
<circle cx="150" cy="135" r="100" fill="#045474"/>
<path d="M177.528 168.504L181.752 167.48C183.117 167.48 183.8 168.163 183.8 169.528C183.715 171.747 182.563 173.709 180.344 175.416C178.211 177.208 175.779 178.104 173.048 178.104C170.317 178.104 168.141 176.781 166.52 174.136C164.216 170.296 162.04 163.427 159.992 153.528C159.053 148.749 157.944 144.824 156.664 141.752C154.36 142.52 151.928 142.904 149.368 142.904C146.808 142.904 144.547 142.392 142.584 141.368C140.707 140.259 139.768 138.936 139.768 137.4C139.939 133.475 143.096 131.512 149.24 131.512C152.227 131.512 155.427 132.835 158.84 135.48C164.131 131.469 166.776 125.88 166.776 118.712C166.776 114.445 165.965 110.691 164.344 107.448C162.723 104.12 160.589 101.517 157.944 99.64C152.739 95.9707 146.936 94.136 140.536 94.136C140.365 96.0133 140.067 99 139.64 103.096C138.787 111.629 138.275 118.243 138.104 122.936L137.72 143.16C137.72 158.691 134.648 166.456 128.504 166.456C124.579 166.456 122.616 164.792 122.616 161.464C122.616 160.611 123.171 159.16 124.28 157.112C125.475 155.064 126.328 152.717 126.84 150.072C127.352 147.341 127.907 139.448 128.504 126.392C129.101 113.251 129.912 102.925 130.936 95.416C126.413 96.696 122.701 98.6587 119.8 101.304C116.984 103.949 115.576 107.064 115.576 110.648C115.576 112.696 115.107 114.36 114.168 115.64C113.229 116.835 112.077 117.432 110.712 117.432C108.237 117.432 107 116.109 107 113.464C107 107.491 109.389 102.584 114.168 98.744C119.032 94.8187 125.005 92.0027 132.088 90.296C133.795 84.5787 136.184 81.72 139.256 81.72C140.451 81.72 141.048 83.0853 141.048 85.816C141.048 86.4133 140.963 87.48 140.792 89.016C141.731 88.8453 143.523 88.76 146.168 88.76C148.813 88.76 151.8 89.144 155.128 89.912C158.456 90.68 161.784 92.0027 165.112 93.88C168.525 95.672 171.256 98.4453 173.304 102.2C175.352 105.869 176.376 110.179 176.376 115.128C176.376 120.077 175.096 124.685 172.536 128.952C169.976 133.219 166.648 136.632 162.552 139.192C165.453 142.776 167.715 147.171 169.336 152.376C171.043 157.581 172.621 161.549 174.072 164.28C175.523 167.096 176.675 168.504 177.528 168.504ZM145.016 135.864C145.016 136.547 145.613 137.144 146.808 137.656C148.003 138.168 149.24 138.424 150.52 138.424C151.885 138.424 153.123 138.211 154.232 137.784C152.525 135.821 150.563 134.84 148.344 134.84C146.125 134.84 145.016 135.181 145.016 135.864Z" fill="#CAECFC"/>
<path d="M41.9662 106.389L16.6076 94.5173L20.9494 85.2433C21.7691 83.4924 22.762 82.0948 23.928 81.0507C25.0997 79.9946 26.4227 79.3699 27.897 79.1768C29.3713 78.9837 30.9779 79.2942 32.7167 80.1082C34.5764 80.9788 35.869 82.0699 36.5948 83.3813C37.3141 84.675 37.6913 86.1177 37.7264 87.7094L51.0567 86.9718L48.6314 92.1522L36.923 92.6332C36.906 92.6695 36.8919 92.6997 36.8806 92.7238C36.8692 92.748 36.8551 92.7781 36.8382 92.8144L34.7182 97.3427L44.1371 101.752L41.9662 106.389ZM30.8419 95.528L32.4362 92.1227C33.3294 90.2147 33.5648 88.7055 33.1425 87.595C32.7081 86.4789 31.8932 85.641 30.6977 85.0813C29.4298 84.4877 28.2671 84.3924 27.2098 84.7955C26.1404 85.1929 25.1818 86.2973 24.3338 88.1086L22.6547 91.695L30.8419 95.528Z" fill="white"/>
<path d="M58.9965 63.8494L51.8401 73.1309L48.2923 70.3954L55.4486 61.1139L58.9965 63.8494ZM42.0593 59.0233L42.8653 57.9779L56.146 78.4207L53.1174 82.3487L37.025 57.364L39.9803 53.5311L68.2361 62.7405L65.2075 66.6685L42.0593 59.0233Z" fill="white"/>
<path d="M73.3015 57.8601L56.6328 35.3622L65.0534 29.1233C67.1961 27.5358 69.4364 26.5729 71.7744 26.2346C74.1045 25.8855 76.3694 26.1988 78.569 27.1743C80.7608 28.1392 82.7298 29.8001 84.476 32.157C86.2222 34.5139 87.2417 36.8866 87.5344 39.275C87.8192 41.6527 87.4593 43.9106 86.4548 46.0488C85.4423 48.1762 83.8648 50.0337 81.7221 51.6212L73.3015 57.8601ZM74.7007 51.1481L79.0075 47.9573C80.4645 46.8778 81.4542 45.6715 81.9767 44.3386C82.4992 43.0056 82.5861 41.5887 82.2376 40.088C81.889 38.5873 81.1353 37.0549 79.9764 35.4907C78.8175 33.9266 77.571 32.7593 76.2368 31.9888C74.9027 31.2183 73.5219 30.8889 72.0945 31.0005C70.6672 31.1122 69.225 31.7078 67.768 32.7873L63.4613 35.9781L74.7007 51.1481Z" fill="white"/>
<path d="M113.316 27.5837L102.352 31.727L100.769 27.5363L111.732 23.393L113.316 27.5837ZM101.433 14.5852L102.668 14.1185L103.241 38.4898L98.6008 40.2432L98.019 10.5302L102.546 8.81917L121.762 31.49L117.122 33.2435L101.433 14.5852Z" fill="white"/>
<path d="M128.756 30.2112L125.786 2.36919L135.968 1.28298C137.891 1.0779 139.6 1.20392 141.097 1.66105C142.608 2.11676 143.827 2.92531 144.755 4.08671C145.684 5.24812 146.25 6.7834 146.454 8.69257C146.671 10.7343 146.407 12.4051 145.661 13.7049C144.926 14.9901 143.887 16.0597 142.544 16.9137L150.075 27.937L144.388 28.5437L137.915 18.7752C137.875 18.7794 137.842 18.783 137.815 18.7858C137.789 18.7886 137.756 18.7922 137.716 18.7964L132.744 19.3268L133.847 29.6681L128.756 30.2112ZM132.29 15.0709L136.029 14.6721C138.124 14.4486 139.537 13.8688 140.268 12.9326C140.998 11.9831 141.293 10.8521 141.153 9.53955C141.005 8.14745 140.485 7.10343 139.592 6.40747C138.699 5.69826 137.258 5.44973 135.269 5.66188L131.331 6.08194L132.29 15.0709Z" fill="white"/>
<path d="M157.524 28.4261L161.675 0.735429L171.801 2.25338C173.713 2.53997 175.336 3.09327 176.669 3.91329C178.015 4.73529 178.991 5.82532 179.597 7.1834C180.202 8.54148 180.362 10.1699 180.078 12.0687C179.773 14.0993 179.096 15.6494 178.046 16.7189C177.011 17.7772 175.736 18.55 174.22 19.0374L178.727 31.6043L173.07 30.7564L169.272 19.6708C169.232 19.6649 169.199 19.6599 169.173 19.656C169.146 19.652 169.113 19.6471 169.074 19.6411L164.129 18.9L162.587 29.1851L157.524 28.4261ZM164.763 14.6672L168.482 15.2246C170.565 15.5369 172.079 15.3324 173.023 14.611C173.969 13.8765 174.54 12.8565 174.736 11.5511C174.943 10.1665 174.703 9.02498 174.015 8.12644C173.329 7.21471 171.998 6.61061 170.02 6.31414L166.103 5.72712L164.763 14.6672Z" fill="white"/>
<path d="M185.819 34.0423L196.602 8.20207L213.14 15.1035L211.23 19.6809L199.528 14.7975L197.232 20.2978L206.313 24.0874L204.403 28.6649L195.322 24.8752L192.565 31.4829L204.636 36.5204L202.725 41.0978L185.819 34.0423Z" fill="white"/>
<path d="M216.347 50.7377C215.436 50.063 214.566 49.2774 213.737 48.3809C212.9 47.4951 212.16 46.6234 211.518 45.7658C210.883 44.8975 210.412 44.1669 210.105 43.5741L213.825 39.5602C214.305 40.4801 214.837 41.397 215.421 42.3109C216.005 43.2249 216.655 44.0958 217.369 44.9236C218.083 45.7514 218.879 46.4908 219.758 47.1417C220.851 47.9513 221.888 48.3879 222.869 48.4515C223.851 48.5151 224.667 48.1076 225.318 47.2291C225.818 46.5542 226.032 45.8743 225.958 45.1894C225.893 44.4937 225.594 43.6995 225.06 42.8066C224.535 41.903 223.827 40.7978 222.937 39.4909C222.047 38.1841 221.319 36.915 220.755 35.6836C220.198 34.4415 219.943 33.207 219.989 31.9801C220.035 30.7531 220.527 29.5075 221.463 28.2434C222.384 27.0006 223.507 26.1234 224.832 25.6116C226.165 25.0891 227.639 25.0032 229.254 25.3537C230.889 25.7015 232.611 26.5461 234.421 27.8876C235.793 28.9036 236.985 30.0273 237.997 31.2587C239.018 32.4794 239.836 33.592 240.453 34.5964L236.915 38.4972C236.072 36.9927 235.2 35.6831 234.3 34.5684C233.419 33.4509 232.405 32.4674 231.259 31.6181C230.059 30.7291 228.986 30.2407 228.039 30.1529C227.091 30.0651 226.324 30.4176 225.737 31.2104C225.268 31.8425 225.073 32.4863 225.152 33.1419C225.23 33.7974 225.504 34.5145 225.973 35.2931C226.449 36.061 227.048 36.9442 227.768 37.9427C229.016 39.6634 229.961 41.2432 230.604 42.6821C231.266 44.1183 231.55 45.482 231.456 46.7732C231.381 48.0617 230.867 49.3487 229.914 50.6343C229.438 51.2771 228.816 51.9034 228.049 52.5133C227.29 53.1124 226.361 53.5272 225.261 53.7576C224.161 53.988 222.869 53.8942 221.387 53.4762C219.923 53.0555 218.243 52.1426 216.347 50.7377Z" fill="white"/>
<path d="M235.234 67.27L252.929 52.514L247.857 46.4314L251.666 43.2548L265.09 59.352L261.28 62.5286L256.208 56.4461L238.513 71.2021L235.234 67.27Z" fill="white"/>
<path d="M249.89 96.2268C248.785 93.7999 248.348 91.3913 248.578 89.001C248.82 86.6052 249.684 84.417 251.171 82.4364C252.669 80.4503 254.753 78.8495 257.423 77.6339C260.092 76.4184 262.662 75.9003 265.132 76.0797C267.613 76.2535 269.831 77.0383 271.785 78.434C273.752 79.8242 275.287 81.7328 276.392 84.1597C277.497 86.5867 277.929 88.998 277.686 91.3938C277.456 93.7841 276.592 95.9723 275.093 97.9584C273.607 99.939 271.529 101.537 268.86 102.753C266.19 103.968 263.614 104.489 261.133 104.315C258.663 104.136 256.445 103.351 254.479 101.961C252.525 100.565 250.995 98.6538 249.89 96.2268ZM254.404 94.1714C255.178 95.8703 256.2 97.1188 257.472 97.9169C258.744 98.715 260.165 99.1008 261.735 99.0744C263.317 99.0425 264.952 98.6425 266.639 97.8745C268.325 97.1065 269.694 96.139 270.745 94.9719C271.808 93.7994 272.456 92.4715 272.689 90.9882C272.922 89.505 272.652 87.914 271.878 86.2151C271.105 84.5163 270.082 83.2678 268.81 82.4697C267.538 81.6716 266.111 81.2885 264.529 81.3205C262.959 81.3468 261.33 81.744 259.644 82.5121C257.957 83.2801 256.582 84.2504 255.519 85.4229C254.468 86.59 253.826 87.9151 253.593 89.3983C253.36 90.8816 253.631 92.4726 254.404 94.1714Z" fill="white"/>
<line x1="39.5" y1="287" x2="39.5" y2="284" stroke="black"/>
<path d="M37.3191 169.492C37.0524 168.461 37.0355 167.497 37.2684 166.601C37.5061 165.702 37.9625 164.931 38.6376 164.286C39.3188 163.645 40.1919 163.187 41.2568 162.912C42.3218 162.636 43.307 162.622 44.2125 162.868C45.124 163.118 45.9003 163.583 46.5413 164.264C47.1871 164.944 47.6421 165.795 47.9062 166.816C48.0452 167.354 48.1142 167.86 48.1132 168.335C48.117 168.81 48.0762 169.231 47.9906 169.599L46.1663 169.854C46.2406 169.442 46.2803 169.026 46.2854 168.607C46.2966 168.191 46.2402 167.743 46.1163 167.264C45.9322 166.552 45.6282 165.996 45.2041 165.594C44.7813 165.197 44.2748 164.946 43.6845 164.84C43.0943 164.735 42.4603 164.77 41.7826 164.945C41.1049 165.12 40.5329 165.395 40.0666 165.768C39.6003 166.142 39.2778 166.602 39.0992 167.15C38.9217 167.702 38.9238 168.329 39.1053 169.03C39.2317 169.519 39.3983 169.944 39.6049 170.303C39.8116 170.663 40.0527 171.017 40.3284 171.364L38.6093 172.025C38.3313 171.689 38.0795 171.305 37.8541 170.872C37.6251 170.446 37.4467 169.986 37.3191 169.492Z" fill="white"/>
<path d="M45.8913 184.63L43.9647 180.68L45.4747 179.943L47.4013 183.893L45.8913 184.63ZM50.3336 179.743L50.5506 180.188L41.4702 181.245L40.6549 179.574L51.7295 178.328L52.5252 179.959L44.7251 187.919L43.9098 186.247L50.3336 179.743Z" fill="white"/>
<path d="M48.1258 194.89L56.5663 188.644L58.8504 191.731C59.2816 192.314 59.5654 192.89 59.7017 193.461C59.841 194.036 59.811 194.584 59.6116 195.105C59.4122 195.625 59.0232 196.1 58.4444 196.528C57.8254 196.986 57.2349 197.218 56.6729 197.223C56.1178 197.23 55.5747 197.097 55.0434 196.824L52.9081 201.353L51.6322 199.628L53.5628 195.681C53.5538 195.669 53.5464 195.659 53.5405 195.651C53.5345 195.643 53.5271 195.632 53.5181 195.62L52.4029 194.113L49.2678 196.433L48.1258 194.89ZM53.693 193.158L54.5317 194.292C55.0017 194.927 55.4574 195.274 55.8991 195.333C56.3447 195.389 56.7665 195.269 57.1644 194.975C57.5864 194.663 57.8253 194.296 57.881 193.876C57.9407 193.452 57.7476 192.939 57.3014 192.336L56.4181 191.142L53.693 193.158Z" fill="white"/>
<path d="M56.7236 207.76L64.2822 200.471L65.6149 201.853L58.0563 209.142L56.7236 207.76Z" fill="white"/>
<path d="M75.9719 224.662L81.6402 218.141L79.3988 216.193L80.619 214.789L86.551 219.946L85.3308 221.349L83.0893 219.401L77.4209 225.922L75.9719 224.662Z" fill="white"/>
<path d="M85.9907 233.223L90.345 223.669L96.4599 226.455L95.6886 228.148L91.3617 226.176L90.4349 228.21L93.7927 229.74L93.0213 231.433L89.6636 229.902L88.5501 232.346L93.0135 234.38L92.2422 236.072L85.9907 233.223Z" fill="white"/>
<path d="M97.8356 239.417L103.118 230.227L104.578 230.817L105.164 236.214L109.321 232.733L110.781 233.323L108.197 243.603L106.347 242.856L108.371 235.164L108.818 235.458L103.849 239.468L103.041 233.14L103.567 233.239L99.6853 240.164L97.8356 239.417Z" fill="white"/>
<path d="M119.864 247.946C118.911 247.699 118.171 247.306 117.644 246.767C117.122 246.23 116.797 245.58 116.668 244.818C116.54 244.057 116.594 243.216 116.832 242.297L118.335 236.488L120.193 236.969L118.815 242.298C118.69 242.782 118.607 243.233 118.566 243.651C118.526 244.065 118.551 244.438 118.64 244.771C118.736 245.1 118.919 245.382 119.188 245.617C119.458 245.852 119.837 246.033 120.326 246.16C120.815 246.286 121.235 246.312 121.585 246.237C121.934 246.162 122.229 246.003 122.467 245.76C122.712 245.514 122.917 245.2 123.082 244.819C123.249 244.434 123.395 243.999 123.52 243.515L124.899 238.185L126.757 238.666L125.255 244.475C125.017 245.395 124.658 246.157 124.176 246.76C123.695 247.364 123.093 247.774 122.371 247.99C121.654 248.207 120.818 248.193 119.864 247.946Z" fill="white"/>
<path d="M135.812 250.886L132.685 244.876L137.183 240.476L139.414 240.77L134.886 245.166L138.043 251.18L135.812 250.886ZM129.908 250.109L131.279 239.699L133.182 239.949L131.812 250.359L129.908 250.109Z" fill="white"/>
<path d="M150.005 249.171L145.614 249.363L145.541 247.685L149.932 247.493L150.005 249.171ZM147.295 243.149L147.789 243.127L145.138 251.876L143.28 251.957L146.553 241.305L148.367 241.225L152.556 251.552L150.698 251.634L147.295 243.149Z" fill="white"/>
<path d="M211.392 231.751L207.624 234.015L206.759 232.575L210.526 230.311L211.392 231.751ZM206.136 227.752L206.56 227.497L208.405 236.451L206.811 237.409L204.605 226.485L206.16 225.55L214.77 232.626L213.175 233.584L206.136 227.752Z" fill="white"/>
<path d="M238.79 209.809L235.655 212.89L234.478 211.691L237.612 208.611L238.79 209.809ZM232.746 207.147L233.099 206.8L236.983 215.076L235.656 216.379L230.961 206.272L232.255 205L242.279 209.871L240.952 211.175L232.746 207.147Z" fill="white"/>
<path d="M158.843 251.971L158.659 241.472L160.549 241.439L165.152 248.14L165.033 241.361L166.953 241.328L167.136 251.826L165.561 251.854L160.637 244.738L160.762 251.937L158.843 251.971Z" fill="white"/>
<path d="M191.607 245.461L186.597 236.234L189.971 234.401C190.608 234.055 191.219 233.855 191.803 233.799C192.392 233.741 192.93 233.847 193.418 234.117C193.906 234.387 194.322 234.838 194.665 235.471C195.033 236.148 195.18 236.765 195.107 237.322C195.036 237.872 194.829 238.392 194.485 238.88L198.672 241.625L196.787 242.648L193.147 240.187C193.134 240.194 193.123 240.2 193.114 240.205C193.105 240.21 193.094 240.216 193.081 240.223L191.433 241.118L193.294 244.545L191.607 245.461ZM190.667 239.707L191.906 239.034C192.601 238.657 193.008 238.254 193.127 237.825C193.245 237.392 193.185 236.957 192.949 236.522C192.699 236.061 192.369 235.773 191.96 235.66C191.549 235.542 191.014 235.661 190.355 236.019L189.05 236.728L190.667 239.707Z" fill="white"/>
<path d="M225.933 224.701C225.635 225.005 225.299 225.288 224.924 225.55C224.552 225.816 224.191 226.047 223.839 226.241C223.484 226.433 223.189 226.571 222.953 226.655L221.651 225.068C222.018 224.936 222.385 224.785 222.755 224.615C223.124 224.445 223.481 224.248 223.825 224.025C224.169 223.802 224.484 223.543 224.77 223.25C225.127 222.886 225.342 222.522 225.416 222.161C225.489 221.799 225.38 221.475 225.086 221.189C224.861 220.969 224.62 220.855 224.361 220.847C224.1 220.836 223.789 220.907 223.43 221.059C223.068 221.208 222.621 221.415 222.09 221.679C221.559 221.943 221.051 222.149 220.564 222.296C220.075 222.439 219.603 222.471 219.149 222.391C218.696 222.312 218.258 222.065 217.836 221.653C217.422 221.248 217.153 220.786 217.03 220.267C216.904 219.745 216.947 219.193 217.16 218.611C217.373 218.022 217.774 217.425 218.365 216.821C218.812 216.363 219.291 215.978 219.8 215.664C220.305 215.347 220.76 215.1 221.165 214.922L222.434 216.435C221.832 216.672 221.301 216.929 220.841 217.206C220.381 217.477 219.964 217.803 219.59 218.186C219.198 218.586 218.962 218.96 218.881 219.308C218.8 219.655 218.892 219.958 219.157 220.217C219.368 220.423 219.597 220.528 219.844 220.532C220.092 220.537 220.372 220.472 220.685 220.337C220.995 220.199 221.354 220.022 221.761 219.805C222.464 219.43 223.099 219.159 223.667 218.993C224.234 218.821 224.755 218.785 225.23 218.885C225.705 218.979 226.157 219.236 226.586 219.655C226.8 219.865 227.001 220.128 227.189 220.444C227.373 220.756 227.479 221.123 227.509 221.543C227.539 221.964 227.438 222.439 227.207 222.968C226.976 223.49 226.551 224.068 225.933 224.701Z" fill="white"/>
<path d="M250.939 197.143L244.164 197.201L242.285 191.196L243.56 189.342L245.422 195.372L252.213 195.289L250.939 197.143ZM247.566 202.051L238.912 196.104L240 194.521L248.653 200.469L247.566 202.051Z" fill="white"/>
<path d="M257.586 180.584L255.869 184.63L254.323 183.974L256.04 179.928L257.586 180.584ZM250.984 180.438L251.177 179.982L257.933 186.141L257.206 187.853L249 180.313L249.709 178.642L260.834 179.307L260.107 181.019L250.984 180.438Z" fill="white"/>
<path d="M264.035 169.56L253.663 167.928L253.956 166.061L261.351 162.685L254.653 161.631L254.952 159.734L265.324 161.366L265.08 162.922L257.221 166.545L264.334 167.664L264.035 169.56Z" fill="white"/>
<rect y="135" width="40" height="3" fill="#075174"/>
<rect x="260" y="135" width="40" height="3" fill="#075174"/>
</svg>
