<svg width="211" height="252" viewBox="0 0 211 252" fill="none" xmlns="http://www.w3.org/2000/svg">
<circle cx="111" cy="100" r="100" fill="#045474"/>
<path d="M138.528 133.504L142.752 132.48C144.117 132.48 144.8 133.163 144.8 134.528C144.715 136.747 143.563 138.709 141.344 140.416C139.211 142.208 136.779 143.104 134.048 143.104C131.317 143.104 129.141 141.781 127.52 139.136C125.216 135.296 123.04 128.427 120.992 118.528C120.053 113.749 118.944 109.824 117.664 106.752C115.36 107.52 112.928 107.904 110.368 107.904C107.808 107.904 105.547 107.392 103.584 106.368C101.707 105.259 100.768 103.936 100.768 102.4C100.939 98.4747 104.096 96.512 110.24 96.512C113.227 96.512 116.427 97.8347 119.84 100.48C125.131 96.4693 127.776 90.88 127.776 83.712C127.776 79.4453 126.965 75.6907 125.344 72.448C123.723 69.12 121.589 66.5173 118.944 64.64C113.739 60.9707 107.936 59.136 101.536 59.136C101.365 61.0133 101.067 64 100.64 68.096C99.7867 76.6293 99.2747 83.2427 99.104 87.936L98.72 108.16C98.72 123.691 95.648 131.456 89.504 131.456C85.5787 131.456 83.616 129.792 83.616 126.464C83.616 125.611 84.1707 124.16 85.28 122.112C86.4747 120.064 87.328 117.717 87.84 115.072C88.352 112.341 88.9067 104.448 89.504 91.392C90.1013 78.2507 90.912 67.9253 91.936 60.416C87.4133 61.696 83.7013 63.6587 80.8 66.304C77.984 68.9493 76.576 72.064 76.576 75.648C76.576 77.696 76.1067 79.36 75.168 80.64C74.2293 81.8347 73.0773 82.432 71.712 82.432C69.2373 82.432 68 81.1093 68 78.464C68 72.4907 70.3893 67.584 75.168 63.744C80.032 59.8187 86.0053 57.0027 93.088 55.296C94.7947 49.5787 97.184 46.72 100.256 46.72C101.451 46.72 102.048 48.0853 102.048 50.816C102.048 51.4133 101.963 52.48 101.792 54.016C102.731 53.8453 104.523 53.76 107.168 53.76C109.813 53.76 112.8 54.144 116.128 54.912C119.456 55.68 122.784 57.0027 126.112 58.88C129.525 60.672 132.256 63.4453 134.304 67.2C136.352 70.8693 137.376 75.1787 137.376 80.128C137.376 85.0773 136.096 89.6853 133.536 93.952C130.976 98.2187 127.648 101.632 123.552 104.192C126.453 107.776 128.715 112.171 130.336 117.376C132.043 122.581 133.621 126.549 135.072 129.28C136.523 132.096 137.675 133.504 138.528 133.504ZM106.016 100.864C106.016 101.547 106.613 102.144 107.808 102.656C109.003 103.168 110.24 103.424 111.52 103.424C112.885 103.424 114.123 103.211 115.232 102.784C113.525 100.821 111.563 99.84 109.344 99.84C107.125 99.84 106.016 100.181 106.016 100.864Z" fill="#CAECFC"/>
<line x1="0.5" y1="252" x2="0.5" y2="249" stroke="black"/>
</svg>
